solid OpenSCAD_Model
  facet normal 0 -0.587786 -0.809017
    outer loop
      vertex -1 12 11.5
      vertex -3.60478e-15 13.4266 10.4635
      vertex -3.96186e-15 12 11.5
    endloop
  endfacet
  facet normal -0 -0.587786 -0.809017
    outer loop
      vertex -3.60478e-15 13.4266 10.4635
      vertex -1 12 11.5
      vertex -1 13.4266 10.4635
    endloop
  endfacet
  facet normal -0 0 1
    outer loop
      vertex -1 12.8817 8.78648
      vertex -3.02702e-15 11.1183 8.78648
      vertex -3.02702e-15 12.8817 8.78648
    endloop
  endfacet
  facet normal 0 0 1
    outer loop
      vertex -3.02702e-15 11.1183 8.78648
      vertex -1 12.8817 8.78648
      vertex -1 11.1183 8.78648
    endloop
  endfacet
  facet normal 0 -0.951056 0.309017
    outer loop
      vertex -1 12.8817 8.78648
      vertex -3.60478e-15 13.4266 10.4635
      vertex -1 13.4266 10.4635
    endloop
  endfacet
  facet normal 0 -0.951056 0.309017
    outer loop
      vertex -3.60478e-15 13.4266 10.4635
      vertex -1 12.8817 8.78648
      vertex -3.02702e-15 12.8817 8.78648
    endloop
  endfacet
  facet normal 0 0.587786 -0.809017
    outer loop
      vertex -1 10.5734 10.4635
      vertex -3.96186e-15 12 11.5
      vertex -3.60478e-15 10.5734 10.4635
    endloop
  endfacet
  facet normal 0 0.587786 -0.809017
    outer loop
      vertex -3.96186e-15 12 11.5
      vertex -1 10.5734 10.4635
      vertex -1 12 11.5
    endloop
  endfacet
  facet normal 0 0.951056 0.309017
    outer loop
      vertex -3.02702e-15 11.1183 8.78648
      vertex -1 10.5734 10.4635
      vertex -3.60478e-15 10.5734 10.4635
    endloop
  endfacet
  facet normal 0 0.951056 0.309017
    outer loop
      vertex -1 10.5734 10.4635
      vertex -3.02702e-15 11.1183 8.78648
      vertex -1 11.1183 8.78648
    endloop
  endfacet
  facet normal 0 -0.5 -0.866025
    outer loop
      vertex -5.4 12 22.2
      vertex -1.5 13.299 21.45
      vertex -1.5 12 22.2
    endloop
  endfacet
  facet normal -0 -0.5 -0.866025
    outer loop
      vertex -1.5 13.299 21.45
      vertex -5.4 12 22.2
      vertex -5.4 13.299 21.45
    endloop
  endfacet
  facet normal 0 -1 0
    outer loop
      vertex -5.4 13.299 18.95
      vertex -1.5 13.299 21.45
      vertex -5.4 13.299 21.45
    endloop
  endfacet
  facet normal 0 -1 -0
    outer loop
      vertex -1.5 13.299 21.45
      vertex -5.4 13.299 18.95
      vertex -1.5 13.299 18.95
    endloop
  endfacet
  facet normal 0 0.5 -0.866025
    outer loop
      vertex -5.4 10.701 21.45
      vertex -1.5 12 22.2
      vertex -1.5 10.701 21.45
    endloop
  endfacet
  facet normal 0 0.5 -0.866025
    outer loop
      vertex -1.5 12 22.2
      vertex -5.4 10.701 21.45
      vertex -5.4 12 22.2
    endloop
  endfacet
  facet normal 0 1 -0
    outer loop
      vertex -1.5 10.701 18.95
      vertex -5.4 10.701 21.45
      vertex -1.5 10.701 21.45
    endloop
  endfacet
  facet normal 0 1 0
    outer loop
      vertex -5.4 10.701 21.45
      vertex -1.5 10.701 18.95
      vertex -5.4 10.701 18.95
    endloop
  endfacet
  facet normal 0 -0.5 -0.866025
    outer loop
      vertex -1.5 12 23.85
      vertex -7.67394e-15 14.728 22.275
      vertex -8.21655e-15 12 23.85
    endloop
  endfacet
  facet normal -0 -0.5 -0.866025
    outer loop
      vertex -7.67394e-15 14.728 22.275
      vertex -1.5 12 23.85
      vertex -1.5 14.728 22.275
    endloop
  endfacet
  facet normal 0 -1 0
    outer loop
      vertex -1.5 14.728 18.125
      vertex -7.67394e-15 14.728 22.275
      vertex -1.5 14.728 22.275
    endloop
  endfacet
  facet normal 0 -1 -0
    outer loop
      vertex -7.67394e-15 14.728 22.275
      vertex -1.5 14.728 18.125
      vertex -6.24423e-15 14.728 18.125
    endloop
  endfacet
  facet normal 1 0 0
    outer loop
      vertex -1.5 14.728 22.275
      vertex -1.5 13.299 21.45
      vertex -1.5 14.728 18.125
    endloop
  endfacet
  facet normal 1 0 0
    outer loop
      vertex -1.5 12 23.85
      vertex -1.5 13.299 21.45
      vertex -1.5 14.728 22.275
    endloop
  endfacet
  facet normal 1 0 0
    outer loop
      vertex -1.5 12 23.85
      vertex -1.5 12 22.2
      vertex -1.5 13.299 21.45
    endloop
  endfacet
  facet normal 1 0 0
    outer loop
      vertex -1.5 12 23.85
      vertex -1.5 10.701 21.45
      vertex -1.5 12 22.2
    endloop
  endfacet
  facet normal 1 0 0
    outer loop
      vertex -1.5 10.701 21.45
      vertex -1.5 9.27202 22.275
      vertex -1.5 10.701 18.95
    endloop
  endfacet
  facet normal 1 -0 0
    outer loop
      vertex -1.5 9.27202 22.275
      vertex -1.5 10.701 21.45
      vertex -1.5 12 23.85
    endloop
  endfacet
  facet normal 1 -0 0
    outer loop
      vertex -1.5 13.299 18.95
      vertex -1.5 14.728 18.125
      vertex -1.5 13.299 21.45
    endloop
  endfacet
  facet normal 1 -0 0
    outer loop
      vertex -1.5 12 18.2
      vertex -1.5 14.728 18.125
      vertex -1.5 13.299 18.95
    endloop
  endfacet
  facet normal 1 0 0
    outer loop
      vertex -1.5 12 18.2
      vertex -1.5 12 16.55
      vertex -1.5 14.728 18.125
    endloop
  endfacet
  facet normal 1 0 0
    outer loop
      vertex -1.5 10.701 18.95
      vertex -1.5 12 16.55
      vertex -1.5 12 18.2
    endloop
  endfacet
  facet normal 1 0 0
    outer loop
      vertex -1.5 10.701 18.95
      vertex -1.5 9.27202 18.125
      vertex -1.5 12 16.55
    endloop
  endfacet
  facet normal 1 0 0
    outer loop
      vertex -1.5 9.27202 18.125
      vertex -1.5 10.701 18.95
      vertex -1.5 9.27202 22.275
    endloop
  endfacet
  facet normal 0 1 0
    outer loop
      vertex -6.24423e-15 9.27202 18.125
      vertex -1.5 9.27202 22.275
      vertex -7.67394e-15 9.27202 22.275
    endloop
  endfacet
  facet normal 0 1 0
    outer loop
      vertex -1.5 9.27202 22.275
      vertex -6.24423e-15 9.27202 18.125
      vertex -1.5 9.27202 18.125
    endloop
  endfacet
  facet normal 0 0.5 -0.866025
    outer loop
      vertex -1.5 9.27202 22.275
      vertex -8.21655e-15 12 23.85
      vertex -7.67394e-15 9.27202 22.275
    endloop
  endfacet
  facet normal 0 0.5 -0.866025
    outer loop
      vertex -8.21655e-15 12 23.85
      vertex -1.5 9.27202 22.275
      vertex -1.5 12 23.85
    endloop
  endfacet
  facet normal 0 -0.5 0.866025
    outer loop
      vertex -5.4 13.299 18.95
      vertex -1.5 12 18.2
      vertex -1.5 13.299 18.95
    endloop
  endfacet
  facet normal 0 -0.5 0.866025
    outer loop
      vertex -1.5 12 18.2
      vertex -5.4 13.299 18.95
      vertex -5.4 12 18.2
    endloop
  endfacet
  facet normal -0 0.5 0.866025
    outer loop
      vertex -5.4 12 18.2
      vertex -1.5 10.701 18.95
      vertex -1.5 12 18.2
    endloop
  endfacet
  facet normal 0 0.5 0.866025
    outer loop
      vertex -1.5 10.701 18.95
      vertex -5.4 12 18.2
      vertex -5.4 10.701 18.95
    endloop
  endfacet
  facet normal 0 -0.5 0.866026
    outer loop
      vertex -1.5 14.728 18.125
      vertex -5.70163e-15 12 16.55
      vertex -6.24423e-15 14.728 18.125
    endloop
  endfacet
  facet normal 0 -0.5 0.866026
    outer loop
      vertex -5.70163e-15 12 16.55
      vertex -1.5 14.728 18.125
      vertex -1.5 12 16.55
    endloop
  endfacet
  facet normal -0 0.5 0.866026
    outer loop
      vertex -1.5 12 16.55
      vertex -6.24423e-15 9.27202 18.125
      vertex -5.70163e-15 12 16.55
    endloop
  endfacet
  facet normal 0 0.5 0.866026
    outer loop
      vertex -6.24423e-15 9.27202 18.125
      vertex -1.5 12 16.55
      vertex -1.5 9.27202 18.125
    endloop
  endfacet
  facet normal 0 0 -1
    outer loop
      vertex 8.02 30.1944 2
      vertex 13.6 35.5944 2
      vertex 13.6 30.1944 2
    endloop
  endfacet
  facet normal -0 0 -1
    outer loop
      vertex 13.6 35.5944 2
      vertex 8.02 30.1944 2
      vertex 8.02 35.5944 2
    endloop
  endfacet
  facet normal 0 0 -1
    outer loop
      vertex -6.89019e-16 30.1944 2
      vertex 0.0199995 35.5944 2
      vertex 0.0199995 30.1944 2
    endloop
  endfacet
  facet normal 0 0 -1
    outer loop
      vertex -5.4 35.5944 2
      vertex -6.89019e-16 30.1944 2
      vertex -5.4 -15 2
    endloop
  endfacet
  facet normal 0 0 -1
    outer loop
      vertex -6.89019e-16 30.1944 2
      vertex -5.4 35.5944 2
      vertex 0.0199995 35.5944 2
    endloop
  endfacet
  facet normal 0 0 -1
    outer loop
      vertex -6.89019e-16 -15 2
      vertex -5.4 -15 2
      vertex -6.89019e-16 30.1944 2
    endloop
  endfacet
  facet normal -1 0 0
    outer loop
      vertex -5.4 12 18.2
      vertex -5.4 13.9134 14.6194
      vertex -5.4 12 15
    endloop
  endfacet
  facet normal -1 0 0
    outer loop
      vertex -5.4 13.9134 14.6194
      vertex -5.4 12 18.2
      vertex -5.4 13.299 18.95
    endloop
  endfacet
  facet normal -1 0 0
    outer loop
      vertex -5.4 10.0866 14.6194
      vertex -5.4 12 18.2
      vertex -5.4 12 15
    endloop
  endfacet
  facet normal -1 0 0
    outer loop
      vertex -5.4 8.46447 13.5355
      vertex -5.4 10.701 18.95
      vertex -5.4 10.0866 14.6194
    endloop
  endfacet
  facet normal -1 -0 0
    outer loop
      vertex -5.4 12 18.2
      vertex -5.4 10.0866 14.6194
      vertex -5.4 10.701 18.95
    endloop
  endfacet
  facet normal -1 0 0
    outer loop
      vertex -5.4 35.5944 2
      vertex -5.4 30.1944 28
      vertex -5.4 35.5944 36
    endloop
  endfacet
  facet normal -1 0 0
    outer loop
      vertex -5.4 16.6194 11.9134
      vertex -5.4 35.5944 2
      vertex -5.4 17 10
    endloop
  endfacet
  facet normal -1 0 0
    outer loop
      vertex -5.4 35.5944 2
      vertex -5.4 16.6194 8.08658
      vertex -5.4 17 10
    endloop
  endfacet
  facet normal -1 0 0
    outer loop
      vertex -5.4 35.5944 2
      vertex -5.4 15.5355 6.46447
      vertex -5.4 16.6194 8.08658
    endloop
  endfacet
  facet normal -1 0 0
    outer loop
      vertex -5.4 35.5944 2
      vertex -5.4 13.9134 5.3806
      vertex -5.4 15.5355 6.46447
    endloop
  endfacet
  facet normal -1 0 0
    outer loop
      vertex -5.4 35.5944 2
      vertex -5.4 12 5
      vertex -5.4 13.9134 5.3806
    endloop
  endfacet
  facet normal -1 0 0
    outer loop
      vertex -5.4 7.3806 8.08658
      vertex -5.4 -1.90735e-07 9.2753
      vertex -5.4 7 10
    endloop
  endfacet
  facet normal -1 0 0
    outer loop
      vertex -5.4 8.46447 6.46447
      vertex -5.4 -1.90735e-07 9.2753
      vertex -5.4 7.3806 8.08658
    endloop
  endfacet
  facet normal -1 0 0
    outer loop
      vertex -5.4 -7 6.75
      vertex -5.4 8.46447 6.46447
      vertex -5.4 10.0866 5.3806
    endloop
  endfacet
  facet normal -1 0 0
    outer loop
      vertex -5.4 8.46447 6.46447
      vertex -5.4 -5.61436 7.55
      vertex -5.4 -1.90735e-07 9.2753
    endloop
  endfacet
  facet normal -1 0 0
    outer loop
      vertex -5.4 -5.61436 9.15
      vertex -5.4 -3.7 9.2753
      vertex -5.4 -5.61436 7.55
    endloop
  endfacet
  facet normal -1 -0 0
    outer loop
      vertex -5.4 -1.90735e-07 9.2753
      vertex -5.4 -5.61436 7.55
      vertex -5.4 -3.7 9.2753
    endloop
  endfacet
  facet normal -1 0 0
    outer loop
      vertex -5.4 -15 2
      vertex -5.4 10.0866 5.3806
      vertex -5.4 12 5
    endloop
  endfacet
  facet normal -1 0 0
    outer loop
      vertex -5.4 8.46447 6.46447
      vertex -5.4 -7 6.75
      vertex -5.4 -5.61436 7.55
    endloop
  endfacet
  facet normal -1 0 0
    outer loop
      vertex -5.4 -15 2
      vertex -5.4 12 5
      vertex -5.4 35.5944 2
    endloop
  endfacet
  facet normal -1 0 0
    outer loop
      vertex -5.4 -8.38564 7.55
      vertex -5.4 -9.7 9.2753
      vertex -5.4 -8.38564 9.15
    endloop
  endfacet
  facet normal -1 0 0
    outer loop
      vertex -5.4 -8.38564 7.55
      vertex -5.4 -12.7 9.2753
      vertex -5.4 -9.7 9.2753
    endloop
  endfacet
  facet normal -1 0 0
    outer loop
      vertex -5.4 -15 2
      vertex -5.4 -8.38564 7.55
      vertex -5.4 -7 6.75
    endloop
  endfacet
  facet normal -1 0 0
    outer loop
      vertex -5.4 -12.7 9.2753
      vertex -5.4 -14.2 9.2753
      vertex -5.4 -12.7 22.2247
    endloop
  endfacet
  facet normal -1 -0 0
    outer loop
      vertex -5.4 -8.38564 7.55
      vertex -5.4 -15 2
      vertex -5.4 -12.7 9.2753
    endloop
  endfacet
  facet normal -1 -0 0
    outer loop
      vertex -5.4 10.0866 5.3806
      vertex -5.4 -15 2
      vertex -5.4 -7 6.75
    endloop
  endfacet
  facet normal -1 -0 0
    outer loop
      vertex -5.4 -12.7 9.2753
      vertex -5.4 -15 2
      vertex -5.4 -14.2 9.2753
    endloop
  endfacet
  facet normal -1 -0 0
    outer loop
      vertex -5.4 -14.2 9.2753
      vertex -5.4 -15 2
      vertex -5.4 -15 9.2753
    endloop
  endfacet
  facet normal -1 -0 0
    outer loop
      vertex -5.4 35.5944 36
      vertex -5.4 30.1944 28
      vertex -5.4 30.1944 36
    endloop
  endfacet
  facet normal -1 0 0
    outer loop
      vertex -5.4 35.5944 2
      vertex -5.4 16.6194 11.9134
      vertex -5.4 30.1944 28
    endloop
  endfacet
  facet normal -1 0 0
    outer loop
      vertex -5.4 15.5355 13.5355
      vertex -5.4 30.1944 28
      vertex -5.4 16.6194 11.9134
    endloop
  endfacet
  facet normal -1 0 0
    outer loop
      vertex -5.4 13.299 18.95
      vertex -5.4 15.5355 13.5355
      vertex -5.4 13.9134 14.6194
    endloop
  endfacet
  facet normal -1 0 0
    outer loop
      vertex -5.4 15.5355 13.5355
      vertex -5.4 13.299 18.95
      vertex -5.4 30.1944 28
    endloop
  endfacet
  facet normal -1 0 0
    outer loop
      vertex -5.4 13.299 21.45
      vertex -5.4 30.1944 28
      vertex -5.4 13.299 18.95
    endloop
  endfacet
  facet normal -1 0 0
    outer loop
      vertex -5.4 12 22.2
      vertex -5.4 30.1944 28
      vertex -5.4 13.299 21.45
    endloop
  endfacet
  facet normal -1 0 0
    outer loop
      vertex -5.4 -1.90735e-07 22.2247
      vertex -5.4 10.701 18.95
      vertex -5.4 8.46447 13.5355
    endloop
  endfacet
  facet normal -1 0 0
    outer loop
      vertex -5.4 -1.90735e-07 22.2247
      vertex -5.4 8.46447 13.5355
      vertex -5.4 7.3806 11.9134
    endloop
  endfacet
  facet normal -1 0 0
    outer loop
      vertex -5.4 -1.90735e-07 9.2753
      vertex -5.4 7.3806 11.9134
      vertex -5.4 7 10
    endloop
  endfacet
  facet normal -1 0 0
    outer loop
      vertex -5.4 -1.90735e-07 22.2247
      vertex -5.4 7.3806 11.9134
      vertex -5.4 -1.90735e-07 9.2753
    endloop
  endfacet
  facet normal -1 0 0
    outer loop
      vertex -5.4 10.701 18.95
      vertex -5.4 -1.90735e-07 22.2247
      vertex -5.4 10.701 21.45
    endloop
  endfacet
  facet normal -1 0 0
    outer loop
      vertex -5.4 -1.90735e-07 22.2247
      vertex -5.4 12 22.2
      vertex -5.4 10.701 21.45
    endloop
  endfacet
  facet normal -1 0 0
    outer loop
      vertex -5.4 -7 24.75
      vertex -5.4 12 22.2
      vertex -5.4 -1.90735e-07 22.2247
    endloop
  endfacet
  facet normal -1 0 0
    outer loop
      vertex -5.4 -5.61436 23.95
      vertex -5.4 -1.90735e-07 22.2247
      vertex -5.4 -3.7 22.2247
    endloop
  endfacet
  facet normal -1 0 0
    outer loop
      vertex -5.4 -5.61436 23.95
      vertex -5.4 -3.7 22.2247
      vertex -5.4 -5.61436 22.35
    endloop
  endfacet
  facet normal -1 0 0
    outer loop
      vertex -5.4 -7 24.75
      vertex -5.4 -1.90735e-07 22.2247
      vertex -5.4 -5.61436 23.95
    endloop
  endfacet
  facet normal -1 0 0
    outer loop
      vertex -5.4 12 22.2
      vertex -5.4 -7 24.75
      vertex -5.4 30.1944 28
    endloop
  endfacet
  facet normal -1 -0 0
    outer loop
      vertex -5.4 -8.38564 22.35
      vertex -5.4 -9.7 22.2247
      vertex -5.4 -8.38564 23.95
    endloop
  endfacet
  facet normal -1 0 0
    outer loop
      vertex -5.4 -12.7 22.2247
      vertex -5.4 -8.38564 23.95
      vertex -5.4 -9.7 22.2247
    endloop
  endfacet
  facet normal -1 0 0
    outer loop
      vertex -5.4 -15 28
      vertex -5.4 -8.38564 23.95
      vertex -5.4 -12.7 22.2247
    endloop
  endfacet
  facet normal -1 0 0
    outer loop
      vertex -5.4 -14.2 22.2247
      vertex -5.4 -12.7 22.2247
      vertex -5.4 -14.2 9.2753
    endloop
  endfacet
  facet normal -1 0 0
    outer loop
      vertex -5.4 -15 28
      vertex -5.4 -12.7 22.2247
      vertex -5.4 -14.2 22.2247
    endloop
  endfacet
  facet normal -1 0 0
    outer loop
      vertex -5.4 -15 28
      vertex -5.4 -14.2 22.2247
      vertex -5.4 -15 22.2247
    endloop
  endfacet
  facet normal -1 0 0
    outer loop
      vertex -5.4 -7 24.75
      vertex -5.4 -15 28
      vertex -5.4 30.1944 28
    endloop
  endfacet
  facet normal -1 0 0
    outer loop
      vertex -5.4 -8.38564 23.95
      vertex -5.4 -15 28
      vertex -5.4 -7 24.75
    endloop
  endfacet
  facet normal -1 0 0
    outer loop
      vertex -5.4 -3.7 19.4912
      vertex -5.4 -5.61436 22.35
      vertex -5.4 -3.7 22.2247
    endloop
  endfacet
  facet normal -1 0 0
    outer loop
      vertex -5.4 -3.7 19.4912
      vertex -5.4 -7 21.55
      vertex -5.4 -5.61436 22.35
    endloop
  endfacet
  facet normal -1 0 0
    outer loop
      vertex -5.4 -9.7 19.4912
      vertex -5.4 -7 21.55
      vertex -5.4 -3.7 19.4912
    endloop
  endfacet
  facet normal -1 0 0
    outer loop
      vertex -5.4 -9.7 22.2247
      vertex -5.4 -8.38564 22.35
      vertex -5.4 -9.7 19.4912
    endloop
  endfacet
  facet normal -1 -0 0
    outer loop
      vertex -5.4 -7 21.55
      vertex -5.4 -9.7 19.4912
      vertex -5.4 -8.38564 22.35
    endloop
  endfacet
  facet normal -1 -0 0
    outer loop
      vertex -5.4 -3.7 9.2753
      vertex -5.4 -5.61436 9.15
      vertex -5.4 -3.7 11.9705
    endloop
  endfacet
  facet normal -1 0 0
    outer loop
      vertex -5.4 -7 9.95
      vertex -5.4 -3.7 11.9705
      vertex -5.4 -5.61436 9.15
    endloop
  endfacet
  facet normal -1 0 0
    outer loop
      vertex -5.4 -9.7 11.9705
      vertex -5.4 -7 9.95
      vertex -5.4 -8.38564 9.15
    endloop
  endfacet
  facet normal -1 0 0
    outer loop
      vertex -5.4 -9.7 11.9705
      vertex -5.4 -8.38564 9.15
      vertex -5.4 -9.7 9.2753
    endloop
  endfacet
  facet normal -1 0 0
    outer loop
      vertex -5.4 -7 9.95
      vertex -5.4 -9.7 11.9705
      vertex -5.4 -3.7 11.9705
    endloop
  endfacet
  facet normal -0 0 1
    outer loop
      vertex -5.4 30.1944 28
      vertex -9.64626e-15 -15 28
      vertex -9.64626e-15 30.1944 28
    endloop
  endfacet
  facet normal 0 0 1
    outer loop
      vertex -9.64626e-15 -15 28
      vertex -5.4 30.1944 28
      vertex -5.4 -15 28
    endloop
  endfacet
  facet normal 0 -1 0
    outer loop
      vertex 8.02 30.1944 25.0652
      vertex 9.21436 30.1944 5.8
      vertex 10.6 30.1944 6.6
    endloop
  endfacet
  facet normal 0 -1 0
    outer loop
      vertex 8.02 30.1944 2
      vertex 9.21436 30.1944 5.8
      vertex 8.02 30.1944 25.0652
    endloop
  endfacet
  facet normal 0 -1 -0
    outer loop
      vertex 9.21436 30.1944 4.2
      vertex 8.02 30.1944 2
      vertex 10.6 30.1944 3.4
    endloop
  endfacet
  facet normal 0 -1 -0
    outer loop
      vertex 9.21436 30.1944 5.8
      vertex 8.02 30.1944 2
      vertex 9.21436 30.1944 4.2
    endloop
  endfacet
  facet normal 0 -1 0
    outer loop
      vertex -6.89019e-16 30.1944 2
      vertex 0.0199995 30.1944 25.0652
      vertex -9.64626e-15 30.1944 28
    endloop
  endfacet
  facet normal 0 -1 -0
    outer loop
      vertex 0.0199995 30.1944 25.0652
      vertex -6.89019e-16 30.1944 2
      vertex 0.0199995 30.1944 2
    endloop
  endfacet
  facet normal 0 -1 0
    outer loop
      vertex 9.21436 30.1944 31.8
      vertex 13.6 30.1944 36
      vertex -1.01436 30.1944 31.8
    endloop
  endfacet
  facet normal 0 -1 0
    outer loop
      vertex 13.6 30.1944 36
      vertex 9.21436 30.1944 31.8
      vertex 10.6 30.1944 32.6
    endloop
  endfacet
  facet normal 0 -1 0
    outer loop
      vertex -9.64626e-15 30.1944 28
      vertex 9.21436 30.1944 31.8
      vertex -1.01436 30.1944 31.8
    endloop
  endfacet
  facet normal 0 -1 0
    outer loop
      vertex -9.64626e-15 30.1944 28
      vertex -1.01436 30.1944 31.8
      vertex -1.01436 30.1944 30.2
    endloop
  endfacet
  facet normal 0 -1 0
    outer loop
      vertex -9.64626e-15 30.1944 28
      vertex -1.01436 30.1944 30.2
      vertex -2.4 30.1944 29.4
    endloop
  endfacet
  facet normal 0 -1 -0
    outer loop
      vertex 9.21436 30.1944 31.8
      vertex -9.64626e-15 30.1944 28
      vertex 9.21436 30.1944 30.2
    endloop
  endfacet
  facet normal 0 -1 0
    outer loop
      vertex -1.01436 30.1944 31.8
      vertex -5.4 30.1944 36
      vertex -2.4 30.1944 32.6
    endloop
  endfacet
  facet normal 0 -1 0
    outer loop
      vertex -5.4 30.1944 36
      vertex -3.78564 30.1944 31.8
      vertex -2.4 30.1944 32.6
    endloop
  endfacet
  facet normal 0 -1 0
    outer loop
      vertex -5.4 30.1944 28
      vertex -3.78564 30.1944 31.8
      vertex -5.4 30.1944 36
    endloop
  endfacet
  facet normal 0 -1 0
    outer loop
      vertex -9.64626e-15 30.1944 28
      vertex -2.4 30.1944 29.4
      vertex -5.4 30.1944 28
    endloop
  endfacet
  facet normal 0 -1 -0
    outer loop
      vertex -3.78564 30.1944 30.2
      vertex -5.4 30.1944 28
      vertex -2.4 30.1944 29.4
    endloop
  endfacet
  facet normal 0 -1 -0
    outer loop
      vertex -3.78564 30.1944 31.8
      vertex -5.4 30.1944 28
      vertex -3.78564 30.1944 30.2
    endloop
  endfacet
  facet normal 0 -1 0
    outer loop
      vertex -5.4 30.1944 36
      vertex -1.01436 30.1944 31.8
      vertex 13.6 30.1944 36
    endloop
  endfacet
  facet normal 0 -1 0
    outer loop
      vertex 11.9856 30.1944 31.8
      vertex 13.6 30.1944 36
      vertex 10.6 30.1944 32.6
    endloop
  endfacet
  facet normal 0 -1 0
    outer loop
      vertex 11.9856 30.1944 30.2
      vertex 13.6 30.1944 36
      vertex 11.9856 30.1944 31.8
    endloop
  endfacet
  facet normal 0 -1 0
    outer loop
      vertex 8.02 30.1944 25.0652
      vertex 9.21436 30.1944 30.2
      vertex -9.64626e-15 30.1944 28
    endloop
  endfacet
  facet normal 0 -1 0
    outer loop
      vertex 8.02 30.1944 25.0652
      vertex -9.64626e-15 30.1944 28
      vertex 0.0199995 30.1944 25.0652
    endloop
  endfacet
  facet normal 0 -1 -0
    outer loop
      vertex 9.21436 30.1944 30.2
      vertex 8.02 30.1944 25.0652
      vertex 10.6 30.1944 29.4
    endloop
  endfacet
  facet normal 0 -1 0
    outer loop
      vertex 8.02 30.1944 25.0652
      vertex 11.9856 30.1944 30.2
      vertex 10.6 30.1944 29.4
    endloop
  endfacet
  facet normal 0 -1 0
    outer loop
      vertex 11.9856 30.1944 5.8
      vertex 8.02 30.1944 25.0652
      vertex 10.6 30.1944 6.6
    endloop
  endfacet
  facet normal 0 -1 0
    outer loop
      vertex 8.02 30.1944 25.0652
      vertex 11.9856 30.1944 5.8
      vertex 11.9856 30.1944 30.2
    endloop
  endfacet
  facet normal 0 -1 0
    outer loop
      vertex 13.6 30.1944 2
      vertex 11.9856 30.1944 30.2
      vertex 11.9856 30.1944 5.8
    endloop
  endfacet
  facet normal 0 -1 0
    outer loop
      vertex 13.6 30.1944 2
      vertex 11.9856 30.1944 5.8
      vertex 11.9856 30.1944 4.2
    endloop
  endfacet
  facet normal 0 -1 0
    outer loop
      vertex 11.9856 30.1944 30.2
      vertex 13.6 30.1944 2
      vertex 13.6 30.1944 36
    endloop
  endfacet
  facet normal 0 -1 0
    outer loop
      vertex 10.6 30.1944 3.4
      vertex 13.6 30.1944 2
      vertex 11.9856 30.1944 4.2
    endloop
  endfacet
  facet normal 0 -1 0
    outer loop
      vertex 13.6 30.1944 2
      vertex 10.6 30.1944 3.4
      vertex 8.02 30.1944 2
    endloop
  endfacet
  facet normal 1 -3.09181e-22 3.44509e-16
    outer loop
      vertex -7.42418e-15 -7 21.55
      vertex -3.15226e-15 -5.61436 9.15
      vertex -7.69978e-15 -5.61436 22.35
    endloop
  endfacet
  facet normal 1 -4.81619e-23 3.44509e-16
    outer loop
      vertex -7.42418e-15 -7 21.55
      vertex -3.42787e-15 -7 9.95
      vertex -3.15226e-15 -5.61436 9.15
    endloop
  endfacet
  facet normal 1 3.26021e-22 3.44509e-16
    outer loop
      vertex -7.69978e-15 -8.38564 22.35
      vertex -3.42787e-15 -7 9.95
      vertex -7.42418e-15 -7 21.55
    endloop
  endfacet
  facet normal 1 6.50019e-23 3.44509e-16
    outer loop
      vertex -3.42787e-15 -7 9.95
      vertex -7.69978e-15 -8.38564 22.35
      vertex -3.15226e-15 -8.38564 9.15
    endloop
  endfacet
  facet normal 1 1.72204e-22 3.44509e-16
    outer loop
      vertex -5.70163e-15 12 16.55
      vertex -3.60478e-15 13.4266 10.4635
      vertex -6.24423e-15 14.728 18.125
    endloop
  endfacet
  facet normal 1 9.58464e-24 3.44509e-16
    outer loop
      vertex -5.70163e-15 12 16.55
      vertex -3.96186e-15 12 11.5
      vertex -3.60478e-15 13.4266 10.4635
    endloop
  endfacet
  facet normal 1 -9.58464e-24 3.44509e-16
    outer loop
      vertex -5.70163e-15 12 16.55
      vertex -3.60478e-15 10.5734 10.4635
      vertex -3.96186e-15 12 11.5
    endloop
  endfacet
  facet normal 1 -1.72204e-22 3.44509e-16
    outer loop
      vertex -3.60478e-15 10.5734 10.4635
      vertex -5.70163e-15 12 16.55
      vertex -6.24423e-15 9.27202 18.125
    endloop
  endfacet
  facet normal 1 3.99906e-23 3.44509e-16
    outer loop
      vertex -6.24423e-15 14.728 18.125
      vertex -9.64626e-15 30.1944 28
      vertex -7.67394e-15 14.728 22.275
    endloop
  endfacet
  facet normal 1 -3.55664e-24 3.44509e-16
    outer loop
      vertex -9.64626e-15 30.1944 28
      vertex -8.21655e-15 12 23.85
      vertex -7.67394e-15 14.728 22.275
    endloop
  endfacet
  facet normal 1 -5.56097e-24 3.44509e-16
    outer loop
      vertex -7.69978e-15 -5.61436 22.35
      vertex -7.67394e-15 9.27202 22.275
      vertex -8.251e-15 -5.61436 23.95
    endloop
  endfacet
  facet normal 1 -6.30378e-24 3.44509e-16
    outer loop
      vertex -8.21655e-15 12 23.85
      vertex -8.251e-15 -5.61436 23.95
      vertex -7.67394e-15 9.27202 22.275
    endloop
  endfacet
  facet normal 1 -0 3.44509e-16
    outer loop
      vertex -9.64626e-15 -15 28
      vertex -8.21655e-15 12 23.85
      vertex -9.64626e-15 30.1944 28
    endloop
  endfacet
  facet normal 1 -8.68319e-24 3.44509e-16
    outer loop
      vertex -8.21655e-15 12 23.85
      vertex -8.5266e-15 -7 24.75
      vertex -8.251e-15 -5.61436 23.95
    endloop
  endfacet
  facet normal 1 4.13285e-23 3.44509e-16
    outer loop
      vertex -9.64626e-15 -15 28
      vertex -7.69978e-15 -8.38564 22.35
      vertex -8.251e-15 -8.38564 23.95
    endloop
  endfacet
  facet normal 1 -5.48432e-23 3.44509e-16
    outer loop
      vertex -7.69978e-15 -8.38564 22.35
      vertex -9.64626e-15 -15 28
      vertex -3.15226e-15 -8.38564 9.15
    endloop
  endfacet
  facet normal 1 -1.6348e-23 3.44509e-16
    outer loop
      vertex -6.89019e-16 -15 2
      vertex -3.15226e-15 -8.38564 9.15
      vertex -9.64626e-15 -15 28
    endloop
  endfacet
  facet normal 1 -1.01981e-22 3.44509e-16
    outer loop
      vertex -8.5266e-15 -7 24.75
      vertex -9.64626e-15 -15 28
      vertex -8.251e-15 -8.38564 23.95
    endloop
  endfacet
  facet normal 1 1.39089e-23 3.44509e-16
    outer loop
      vertex -8.21655e-15 12 23.85
      vertex -9.64626e-15 -15 28
      vertex -8.5266e-15 -7 24.75
    endloop
  endfacet
  facet normal 1 1.30168e-23 3.44509e-16
    outer loop
      vertex -9.64626e-15 30.1944 28
      vertex -6.24423e-15 14.728 18.125
      vertex -6.89019e-16 30.1944 2
    endloop
  endfacet
  facet normal 1 -2.36177e-23 3.44509e-16
    outer loop
      vertex -3.60478e-15 13.4266 10.4635
      vertex -6.89019e-16 30.1944 2
      vertex -6.24423e-15 14.728 18.125
    endloop
  endfacet
  facet normal 1 1.58078e-23 3.44509e-16
    outer loop
      vertex -3.02702e-15 12.8817 8.78648
      vertex -6.89019e-16 30.1944 2
      vertex -3.60478e-15 13.4266 10.4635
    endloop
  endfacet
  facet normal 1 -0 3.44509e-16
    outer loop
      vertex -3.02702e-15 11.1183 8.78648
      vertex -6.89019e-16 30.1944 2
      vertex -3.02702e-15 12.8817 8.78648
    endloop
  endfacet
  facet normal 1 -6.27298e-24 3.44509e-16
    outer loop
      vertex -7.67394e-15 9.27202 22.275
      vertex -7.69978e-15 -5.61436 22.35
      vertex -6.24423e-15 9.27202 18.125
    endloop
  endfacet
  facet normal 1 1.88364e-24 3.44509e-16
    outer loop
      vertex -3.15226e-15 -5.61436 9.15
      vertex -6.24423e-15 9.27202 18.125
      vertex -7.69978e-15 -5.61436 22.35
    endloop
  endfacet
  facet normal 1 1.57322e-23 3.44509e-16
    outer loop
      vertex -6.24423e-15 9.27202 18.125
      vertex -3.15226e-15 -5.61436 9.15
      vertex -3.60478e-15 10.5734 10.4635
    endloop
  endfacet
  facet normal 1 1.54719e-23 3.44509e-16
    outer loop
      vertex -2.60104e-15 -5.61436 7.55
      vertex -3.60478e-15 10.5734 10.4635
      vertex -3.15226e-15 -5.61436 9.15
    endloop
  endfacet
  facet normal 1 7.79807e-25 3.44509e-16
    outer loop
      vertex -3.60478e-15 10.5734 10.4635
      vertex -2.60104e-15 -5.61436 7.55
      vertex -3.02702e-15 11.1183 8.78648
    endloop
  endfacet
  facet normal 1 6.6559e-24 3.44509e-16
    outer loop
      vertex -2.32544e-15 -7 6.75
      vertex -3.02702e-15 11.1183 8.78648
      vertex -2.60104e-15 -5.61436 7.55
    endloop
  endfacet
  facet normal 1 5.03425e-24 3.44509e-16
    outer loop
      vertex -6.89019e-16 -15 2
      vertex -3.02702e-15 11.1183 8.78648
      vertex -2.32544e-15 -7 6.75
    endloop
  endfacet
  facet normal 1 0 3.44509e-16
    outer loop
      vertex -3.02702e-15 11.1183 8.78648
      vertex -6.89019e-16 -15 2
      vertex -6.89019e-16 30.1944 2
    endloop
  endfacet
  facet normal 1 3.33055e-24 3.44509e-16
    outer loop
      vertex -2.60104e-15 -8.38564 7.55
      vertex -6.89019e-16 -15 2
      vertex -2.32544e-15 -7 6.75
    endloop
  endfacet
  facet normal 1 1.96164e-23 3.44509e-16
    outer loop
      vertex -3.15226e-15 -8.38564 9.15
      vertex -6.89019e-16 -15 2
      vertex -2.60104e-15 -8.38564 7.55
    endloop
  endfacet
  facet normal 0 -1 0
    outer loop
      vertex -4.69502 -15 21.7381
      vertex -5.4 -15 28
      vertex -5.4 -15 22.2247
    endloop
  endfacet
  facet normal 0 -1 0
    outer loop
      vertex -5.4 -15 28
      vertex -4.69502 -15 21.7381
      vertex -9.64626e-15 -15 28
    endloop
  endfacet
  facet normal 0 -1 0
    outer loop
      vertex -3.41613 -15 20.2945
      vertex -9.64626e-15 -15 28
      vertex -4.69502 -15 21.7381
    endloop
  endfacet
  facet normal 0 -1 0
    outer loop
      vertex -2.51987 -15 18.5868
      vertex -9.64626e-15 -15 28
      vertex -3.41613 -15 20.2945
    endloop
  endfacet
  facet normal 0 -1 0
    outer loop
      vertex -2.05833 -15 16.7143
      vertex -9.64626e-15 -15 28
      vertex -2.51987 -15 18.5868
    endloop
  endfacet
  facet normal 0 -1 0
    outer loop
      vertex -2.05833 -15 14.7857
      vertex -9.64626e-15 -15 28
      vertex -2.05833 -15 16.7143
    endloop
  endfacet
  facet normal 0 -1 0
    outer loop
      vertex -6.89019e-16 -15 2
      vertex -5.4 -15 9.2753
      vertex -5.4 -15 2
    endloop
  endfacet
  facet normal 0 -1 0
    outer loop
      vertex -5.4 -15 9.2753
      vertex -6.89019e-16 -15 2
      vertex -4.69502 -15 9.76191
    endloop
  endfacet
  facet normal 0 -1 0
    outer loop
      vertex -4.69502 -15 9.76191
      vertex -6.89019e-16 -15 2
      vertex -3.41613 -15 11.2055
    endloop
  endfacet
  facet normal 0 -1 0
    outer loop
      vertex -2.05833 -15 14.7857
      vertex -6.89019e-16 -15 2
      vertex -9.64626e-15 -15 28
    endloop
  endfacet
  facet normal 0 -1 0
    outer loop
      vertex -2.51987 -15 12.9132
      vertex -6.89019e-16 -15 2
      vertex -2.05833 -15 14.7857
    endloop
  endfacet
  facet normal 0 -1 0
    outer loop
      vertex -3.41613 -15 11.2055
      vertex -6.89019e-16 -15 2
      vertex -2.51987 -15 12.9132
    endloop
  endfacet
  facet normal 0 -0.195091 -0.980785
    outer loop
      vertex -5.4 12 15
      vertex -1 13.9134 14.6194
      vertex -1 12 15
    endloop
  endfacet
  facet normal -0 -0.195091 -0.980785
    outer loop
      vertex -1 13.9134 14.6194
      vertex -5.4 12 15
      vertex -5.4 13.9134 14.6194
    endloop
  endfacet
  facet normal 0 -0.980785 0.195091
    outer loop
      vertex -5.4 16.6194 8.08658
      vertex -1 17 10
      vertex -5.4 17 10
    endloop
  endfacet
  facet normal 0 -0.980785 0.195091
    outer loop
      vertex -1 17 10
      vertex -5.4 16.6194 8.08658
      vertex -1 16.6194 8.08658
    endloop
  endfacet
  facet normal 0 0.83147 -0.55557
    outer loop
      vertex -1 7.3806 11.9134
      vertex -5.4 8.46447 13.5355
      vertex -1 8.46447 13.5355
    endloop
  endfacet
  facet normal 0 0.83147 -0.55557
    outer loop
      vertex -5.4 8.46447 13.5355
      vertex -1 7.3806 11.9134
      vertex -5.4 7.3806 11.9134
    endloop
  endfacet
  facet normal 0 -0.83147 -0.55557
    outer loop
      vertex -5.4 16.6194 11.9134
      vertex -1 15.5355 13.5355
      vertex -5.4 15.5355 13.5355
    endloop
  endfacet
  facet normal 0 -0.83147 -0.55557
    outer loop
      vertex -1 15.5355 13.5355
      vertex -5.4 16.6194 11.9134
      vertex -1 16.6194 11.9134
    endloop
  endfacet
  facet normal 0 -0.55557 -0.83147
    outer loop
      vertex -5.4 13.9134 14.6194
      vertex -1 15.5355 13.5355
      vertex -1 13.9134 14.6194
    endloop
  endfacet
  facet normal -0 -0.55557 -0.83147
    outer loop
      vertex -1 15.5355 13.5355
      vertex -5.4 13.9134 14.6194
      vertex -5.4 15.5355 13.5355
    endloop
  endfacet
  facet normal 0 -0.980785 -0.195091
    outer loop
      vertex -5.4 17 10
      vertex -1 16.6194 11.9134
      vertex -5.4 16.6194 11.9134
    endloop
  endfacet
  facet normal 0 -0.980785 -0.195091
    outer loop
      vertex -1 16.6194 11.9134
      vertex -5.4 17 10
      vertex -1 17 10
    endloop
  endfacet
  facet normal 0 -0.55557 0.83147
    outer loop
      vertex -5.4 15.5355 6.46447
      vertex -1 13.9134 5.3806
      vertex -1 15.5355 6.46447
    endloop
  endfacet
  facet normal 0 -0.55557 0.83147
    outer loop
      vertex -1 13.9134 5.3806
      vertex -5.4 15.5355 6.46447
      vertex -5.4 13.9134 5.3806
    endloop
  endfacet
  facet normal -1 0 0
    outer loop
      vertex -1 13.4266 10.4635
      vertex -1 17 10
      vertex -1 16.6194 8.08658
    endloop
  endfacet
  facet normal -1 0 0
    outer loop
      vertex -1 12.8817 8.78648
      vertex -1 16.6194 8.08658
      vertex -1 15.5355 6.46447
    endloop
  endfacet
  facet normal -1 0 0
    outer loop
      vertex -1 17 10
      vertex -1 13.4266 10.4635
      vertex -1 16.6194 11.9134
    endloop
  endfacet
  facet normal -1 0 0
    outer loop
      vertex -1 12.8817 8.78648
      vertex -1 15.5355 6.46447
      vertex -1 13.9134 5.3806
    endloop
  endfacet
  facet normal -1 -0 0
    outer loop
      vertex -1 16.6194 11.9134
      vertex -1 13.4266 10.4635
      vertex -1 15.5355 13.5355
    endloop
  endfacet
  facet normal -1 0 0
    outer loop
      vertex -1 12 11.5
      vertex -1 15.5355 13.5355
      vertex -1 13.4266 10.4635
    endloop
  endfacet
  facet normal -1 0 0
    outer loop
      vertex -1 16.6194 8.08658
      vertex -1 12.8817 8.78648
      vertex -1 13.4266 10.4635
    endloop
  endfacet
  facet normal -1 0 0
    outer loop
      vertex -1 12 5
      vertex -1 12.8817 8.78648
      vertex -1 13.9134 5.3806
    endloop
  endfacet
  facet normal -1 0 0
    outer loop
      vertex -1 12 5
      vertex -1 11.1183 8.78648
      vertex -1 12.8817 8.78648
    endloop
  endfacet
  facet normal -1 0 0
    outer loop
      vertex -1 10.0866 5.3806
      vertex -1 11.1183 8.78648
      vertex -1 12 5
    endloop
  endfacet
  facet normal -1 0 0
    outer loop
      vertex -1 8.46447 6.46447
      vertex -1 11.1183 8.78648
      vertex -1 10.0866 5.3806
    endloop
  endfacet
  facet normal -1 -0 0
    outer loop
      vertex -1 15.5355 13.5355
      vertex -1 12 11.5
      vertex -1 13.9134 14.6194
    endloop
  endfacet
  facet normal -1 0 0
    outer loop
      vertex -1 12 11.5
      vertex -1 12 15
      vertex -1 13.9134 14.6194
    endloop
  endfacet
  facet normal -1 0 0
    outer loop
      vertex -1 8.46447 13.5355
      vertex -1 12 11.5
      vertex -1 10.5734 10.4635
    endloop
  endfacet
  facet normal -1 0 0
    outer loop
      vertex -1 12 11.5
      vertex -1 10.0866 14.6194
      vertex -1 12 15
    endloop
  endfacet
  facet normal -1 0 0
    outer loop
      vertex -1 7.3806 8.08658
      vertex -1 11.1183 8.78648
      vertex -1 8.46447 6.46447
    endloop
  endfacet
  facet normal -1 -0 0
    outer loop
      vertex -1 11.1183 8.78648
      vertex -1 7.3806 8.08658
      vertex -1 10.5734 10.4635
    endloop
  endfacet
  facet normal -1 0 0
    outer loop
      vertex -1 12 11.5
      vertex -1 8.46447 13.5355
      vertex -1 10.0866 14.6194
    endloop
  endfacet
  facet normal -1 0 0
    outer loop
      vertex -1 7 10
      vertex -1 10.5734 10.4635
      vertex -1 7.3806 8.08658
    endloop
  endfacet
  facet normal -1 0 0
    outer loop
      vertex -1 10.5734 10.4635
      vertex -1 7.3806 11.9134
      vertex -1 8.46447 13.5355
    endloop
  endfacet
  facet normal -1 -0 0
    outer loop
      vertex -1 10.5734 10.4635
      vertex -1 7 10
      vertex -1 7.3806 11.9134
    endloop
  endfacet
  facet normal 0 -0.19509 0.980785
    outer loop
      vertex -5.4 13.9134 5.3806
      vertex -1 12 5
      vertex -1 13.9134 5.3806
    endloop
  endfacet
  facet normal 0 -0.19509 0.980785
    outer loop
      vertex -1 12 5
      vertex -5.4 13.9134 5.3806
      vertex -5.4 12 5
    endloop
  endfacet
  facet normal 0 -0.83147 0.55557
    outer loop
      vertex -5.4 15.5355 6.46447
      vertex -1 16.6194 8.08658
      vertex -5.4 16.6194 8.08658
    endloop
  endfacet
  facet normal 0 -0.83147 0.55557
    outer loop
      vertex -1 16.6194 8.08658
      vertex -5.4 15.5355 6.46447
      vertex -1 15.5355 6.46447
    endloop
  endfacet
  facet normal 0 0.980785 0.19509
    outer loop
      vertex -1 7.3806 8.08658
      vertex -5.4 7 10
      vertex -1 7 10
    endloop
  endfacet
  facet normal 0 0.980785 0.19509
    outer loop
      vertex -5.4 7 10
      vertex -1 7.3806 8.08658
      vertex -5.4 7.3806 8.08658
    endloop
  endfacet
  facet normal -0 0.55557 0.83147
    outer loop
      vertex -5.4 10.0866 5.3806
      vertex -1 8.46447 6.46447
      vertex -1 10.0866 5.3806
    endloop
  endfacet
  facet normal 0 0.55557 0.83147
    outer loop
      vertex -1 8.46447 6.46447
      vertex -5.4 10.0866 5.3806
      vertex -5.4 8.46447 6.46447
    endloop
  endfacet
  facet normal -0 0.19509 0.980785
    outer loop
      vertex -5.4 12 5
      vertex -1 10.0866 5.3806
      vertex -1 12 5
    endloop
  endfacet
  facet normal 0 0.19509 0.980785
    outer loop
      vertex -1 10.0866 5.3806
      vertex -5.4 12 5
      vertex -5.4 10.0866 5.3806
    endloop
  endfacet
  facet normal 0 0.55557 -0.83147
    outer loop
      vertex -5.4 8.46447 13.5355
      vertex -1 10.0866 14.6194
      vertex -1 8.46447 13.5355
    endloop
  endfacet
  facet normal 0 0.55557 -0.83147
    outer loop
      vertex -1 10.0866 14.6194
      vertex -5.4 8.46447 13.5355
      vertex -5.4 10.0866 14.6194
    endloop
  endfacet
  facet normal 0 0.980785 -0.19509
    outer loop
      vertex -1 7 10
      vertex -5.4 7.3806 11.9134
      vertex -1 7.3806 11.9134
    endloop
  endfacet
  facet normal 0 0.980785 -0.19509
    outer loop
      vertex -5.4 7.3806 11.9134
      vertex -1 7 10
      vertex -5.4 7 10
    endloop
  endfacet
  facet normal 0 0.83147 0.55557
    outer loop
      vertex -1 8.46447 6.46447
      vertex -5.4 7.3806 8.08658
      vertex -1 7.3806 8.08658
    endloop
  endfacet
  facet normal 0 0.83147 0.55557
    outer loop
      vertex -5.4 7.3806 8.08658
      vertex -1 8.46447 6.46447
      vertex -5.4 8.46447 6.46447
    endloop
  endfacet
  facet normal 0 0.195091 -0.980785
    outer loop
      vertex -5.4 10.0866 14.6194
      vertex -1 12 15
      vertex -1 10.0866 14.6194
    endloop
  endfacet
  facet normal 0 0.195091 -0.980785
    outer loop
      vertex -1 12 15
      vertex -5.4 10.0866 14.6194
      vertex -5.4 12 15
    endloop
  endfacet
  facet normal -1 0 0
    outer loop
      vertex 8.02 30.1944 2
      vertex 8.02 35.5944 16.1699
      vertex 8.02 35.5944 2
    endloop
  endfacet
  facet normal -1 -0 0
    outer loop
      vertex 8.02 35.5944 16.1699
      vertex 8.02 30.1944 2
      vertex 8.02 34.6156 18.6421
    endloop
  endfacet
  facet normal -1 -0 0
    outer loop
      vertex 8.02 34.6156 18.6421
      vertex 8.02 30.1944 2
      vertex 8.02 33.1034 21.3927
    endloop
  endfacet
  facet normal -1 -0 0
    outer loop
      vertex 8.02 33.1034 21.3927
      vertex 8.02 30.1944 2
      vertex 8.02 31.2585 23.932
    endloop
  endfacet
  facet normal -1 -0 0
    outer loop
      vertex 8.02 31.2585 23.932
      vertex 8.02 30.1944 2
      vertex 8.02 30.1944 25.0652
    endloop
  endfacet
  facet normal 0 -0.809017 -0.587786
    outer loop
      vertex 0.0199995 33.1034 21.3927
      vertex 8.02 31.2585 23.932
      vertex 0.0199995 31.2585 23.932
    endloop
  endfacet
  facet normal 0 -0.809017 -0.587786
    outer loop
      vertex 8.02 31.2585 23.932
      vertex 0.0199995 33.1034 21.3927
      vertex 8.02 33.1034 21.3927
    endloop
  endfacet
  facet normal 0 -0.728968 -0.684548
    outer loop
      vertex 0.0199995 31.2585 23.932
      vertex 8.02 30.1944 25.0652
      vertex 0.0199995 30.1944 25.0652
    endloop
  endfacet
  facet normal 0 -0.728968 -0.684548
    outer loop
      vertex 8.02 30.1944 25.0652
      vertex 0.0199995 31.2585 23.932
      vertex 8.02 31.2585 23.932
    endloop
  endfacet
  facet normal 0 -0.929777 -0.368124
    outer loop
      vertex 0.0199995 35.5944 16.1699
      vertex 8.02 34.6156 18.6421
      vertex 0.0199995 34.6156 18.6421
    endloop
  endfacet
  facet normal 0 -0.929777 -0.368124
    outer loop
      vertex 8.02 34.6156 18.6421
      vertex 0.0199995 35.5944 16.1699
      vertex 8.02 35.5944 16.1699
    endloop
  endfacet
  facet normal 0 -0.876307 -0.481754
    outer loop
      vertex 0.0199995 34.6156 18.6421
      vertex 8.02 33.1034 21.3927
      vertex 0.0199995 33.1034 21.3927
    endloop
  endfacet
  facet normal 0 -0.876307 -0.481754
    outer loop
      vertex 8.02 33.1034 21.3927
      vertex 0.0199995 34.6156 18.6421
      vertex 8.02 34.6156 18.6421
    endloop
  endfacet
  facet normal 1 0 0
    outer loop
      vertex 0.0199995 30.1944 2
      vertex 0.0199995 35.5944 16.1699
      vertex 0.0199995 34.6156 18.6421
    endloop
  endfacet
  facet normal 1 0 0
    outer loop
      vertex 0.0199995 30.1944 2
      vertex 0.0199995 34.6156 18.6421
      vertex 0.0199995 33.1034 21.3927
    endloop
  endfacet
  facet normal 1 0 0
    outer loop
      vertex 0.0199995 30.1944 2
      vertex 0.0199995 33.1034 21.3927
      vertex 0.0199995 31.2585 23.932
    endloop
  endfacet
  facet normal 1 0 0
    outer loop
      vertex 0.0199995 30.1944 2
      vertex 0.0199995 31.2585 23.932
      vertex 0.0199995 30.1944 25.0652
    endloop
  endfacet
  facet normal 1 0 0
    outer loop
      vertex 0.0199995 35.5944 16.1699
      vertex 0.0199995 30.1944 2
      vertex 0.0199995 35.5944 2
    endloop
  endfacet
  facet normal -0.5 0 -0.866025
    outer loop
      vertex 10.6 30.1944 6.6
      vertex 11.9856 35.5944 5.8
      vertex 11.9856 30.1944 5.8
    endloop
  endfacet
  facet normal -0.5 0 -0.866025
    outer loop
      vertex 11.9856 35.5944 5.8
      vertex 10.6 30.1944 6.6
      vertex 10.6 35.5944 6.6
    endloop
  endfacet
  facet normal -0.5 0 0.866025
    outer loop
      vertex 10.6 35.5944 3.4
      vertex 11.9856 30.1944 4.2
      vertex 11.9856 35.5944 4.2
    endloop
  endfacet
  facet normal -0.5 0 0.866025
    outer loop
      vertex 11.9856 30.1944 4.2
      vertex 10.6 35.5944 3.4
      vertex 10.6 30.1944 3.4
    endloop
  endfacet
  facet normal -1 0 0
    outer loop
      vertex 11.9856 30.1944 4.2
      vertex 11.9856 35.5944 5.8
      vertex 11.9856 35.5944 4.2
    endloop
  endfacet
  facet normal -1 -0 0
    outer loop
      vertex 11.9856 35.5944 5.8
      vertex 11.9856 30.1944 4.2
      vertex 11.9856 30.1944 5.8
    endloop
  endfacet
  facet normal 0.5 0 0.866025
    outer loop
      vertex 9.21436 35.5944 4.2
      vertex 10.6 30.1944 3.4
      vertex 10.6 35.5944 3.4
    endloop
  endfacet
  facet normal 0.5 0 0.866025
    outer loop
      vertex 10.6 30.1944 3.4
      vertex 9.21436 35.5944 4.2
      vertex 9.21436 30.1944 4.2
    endloop
  endfacet
  facet normal 0.5 0 -0.866025
    outer loop
      vertex 9.21436 30.1944 5.8
      vertex 10.6 35.5944 6.6
      vertex 10.6 30.1944 6.6
    endloop
  endfacet
  facet normal 0.5 0 -0.866025
    outer loop
      vertex 10.6 35.5944 6.6
      vertex 9.21436 30.1944 5.8
      vertex 9.21436 35.5944 5.8
    endloop
  endfacet
  facet normal 1 -0 0
    outer loop
      vertex 9.21436 30.1944 5.8
      vertex 9.21436 35.5944 4.2
      vertex 9.21436 35.5944 5.8
    endloop
  endfacet
  facet normal 1 0 0
    outer loop
      vertex 9.21436 35.5944 4.2
      vertex 9.21436 30.1944 5.8
      vertex 9.21436 30.1944 4.2
    endloop
  endfacet
  facet normal -0 0 1
    outer loop
      vertex -5.4 35.5944 36
      vertex 13.6 30.1944 36
      vertex 13.6 35.5944 36
    endloop
  endfacet
  facet normal 0 0 1
    outer loop
      vertex 13.6 30.1944 36
      vertex -5.4 35.5944 36
      vertex -5.4 30.1944 36
    endloop
  endfacet
  facet normal 1 -0 0
    outer loop
      vertex 13.6 30.1944 36
      vertex 13.6 35.5944 2
      vertex 13.6 35.5944 36
    endloop
  endfacet
  facet normal 1 0 0
    outer loop
      vertex 13.6 35.5944 2
      vertex 13.6 30.1944 36
      vertex 13.6 30.1944 2
    endloop
  endfacet
  facet normal 0 1 -0
    outer loop
      vertex -1.01436 35.5944 31.8
      vertex -5.4 35.5944 36
      vertex 9.21436 35.5944 31.8
    endloop
  endfacet
  facet normal 0 1 0
    outer loop
      vertex -5.4 35.5944 36
      vertex -1.01436 35.5944 31.8
      vertex -2.4 35.5944 32.6
    endloop
  endfacet
  facet normal 0 1 -0
    outer loop
      vertex 9.21436 35.5944 30.2
      vertex -1.01436 35.5944 31.8
      vertex 9.21436 35.5944 31.8
    endloop
  endfacet
  facet normal 0 1 0
    outer loop
      vertex 9.21436 35.5944 30.2
      vertex -1.01436 35.5944 30.2
      vertex -1.01436 35.5944 31.8
    endloop
  endfacet
  facet normal 0 1 0
    outer loop
      vertex 8.02 35.5944 16.1699
      vertex 9.21436 35.5944 30.2
      vertex 10.6 35.5944 29.4
    endloop
  endfacet
  facet normal 0 1 0
    outer loop
      vertex 9.21436 35.5944 30.2
      vertex 8.02 35.5944 16.1699
      vertex -1.01436 35.5944 30.2
    endloop
  endfacet
  facet normal 0 1 0
    outer loop
      vertex 9.21436 35.5944 31.8
      vertex 13.6 35.5944 36
      vertex 10.6 35.5944 32.6
    endloop
  endfacet
  facet normal 0 1 0
    outer loop
      vertex 13.6 35.5944 36
      vertex 11.9856 35.5944 31.8
      vertex 10.6 35.5944 32.6
    endloop
  endfacet
  facet normal 0 1 0
    outer loop
      vertex 13.6 35.5944 36
      vertex 11.9856 35.5944 30.2
      vertex 11.9856 35.5944 31.8
    endloop
  endfacet
  facet normal 0 1 -0
    outer loop
      vertex 0.0199995 35.5944 16.1699
      vertex -1.01436 35.5944 30.2
      vertex 8.02 35.5944 16.1699
    endloop
  endfacet
  facet normal 0 1 0
    outer loop
      vertex 11.9856 35.5944 30.2
      vertex 8.02 35.5944 16.1699
      vertex 10.6 35.5944 29.4
    endloop
  endfacet
  facet normal 0 1 -0
    outer loop
      vertex 11.9856 35.5944 5.8
      vertex 8.02 35.5944 16.1699
      vertex 11.9856 35.5944 30.2
    endloop
  endfacet
  facet normal 0 1 -0
    outer loop
      vertex 13.6 35.5944 2
      vertex 11.9856 35.5944 30.2
      vertex 13.6 35.5944 36
    endloop
  endfacet
  facet normal 0 1 0
    outer loop
      vertex 8.02 35.5944 16.1699
      vertex 11.9856 35.5944 5.8
      vertex 10.6 35.5944 6.6
    endloop
  endfacet
  facet normal 0 1 0
    outer loop
      vertex 11.9856 35.5944 30.2
      vertex 13.6 35.5944 2
      vertex 11.9856 35.5944 5.8
    endloop
  endfacet
  facet normal 0 1 0
    outer loop
      vertex 11.9856 35.5944 4.2
      vertex 13.6 35.5944 2
      vertex 10.6 35.5944 3.4
    endloop
  endfacet
  facet normal 0 1 0
    outer loop
      vertex 11.9856 35.5944 5.8
      vertex 13.6 35.5944 2
      vertex 11.9856 35.5944 4.2
    endloop
  endfacet
  facet normal 0 1 0
    outer loop
      vertex 13.6 35.5944 36
      vertex 9.21436 35.5944 31.8
      vertex -5.4 35.5944 36
    endloop
  endfacet
  facet normal 0 1 -0
    outer loop
      vertex -3.78564 35.5944 31.8
      vertex -5.4 35.5944 36
      vertex -2.4 35.5944 32.6
    endloop
  endfacet
  facet normal 0 1 -0
    outer loop
      vertex -3.78564 35.5944 30.2
      vertex -5.4 35.5944 36
      vertex -3.78564 35.5944 31.8
    endloop
  endfacet
  facet normal 0 1 0
    outer loop
      vertex -1.01436 35.5944 30.2
      vertex 0.0199995 35.5944 16.1699
      vertex -2.4 35.5944 29.4
    endloop
  endfacet
  facet normal 0 1 0
    outer loop
      vertex -2.4 35.5944 29.4
      vertex 0.0199995 35.5944 16.1699
      vertex -3.78564 35.5944 30.2
    endloop
  endfacet
  facet normal 0 1 0
    outer loop
      vertex -5.4 35.5944 2
      vertex -3.78564 35.5944 30.2
      vertex 0.0199995 35.5944 16.1699
    endloop
  endfacet
  facet normal 0 1 0
    outer loop
      vertex -5.4 35.5944 2
      vertex 0.0199995 35.5944 16.1699
      vertex 0.0199995 35.5944 2
    endloop
  endfacet
  facet normal 0 1 0
    outer loop
      vertex -3.78564 35.5944 30.2
      vertex -5.4 35.5944 2
      vertex -5.4 35.5944 36
    endloop
  endfacet
  facet normal 0 1 -0
    outer loop
      vertex 9.21436 35.5944 5.8
      vertex 8.02 35.5944 16.1699
      vertex 10.6 35.5944 6.6
    endloop
  endfacet
  facet normal 0 1 0
    outer loop
      vertex 8.02 35.5944 2
      vertex 9.21436 35.5944 5.8
      vertex 9.21436 35.5944 4.2
    endloop
  endfacet
  facet normal 0 1 0
    outer loop
      vertex 9.21436 35.5944 5.8
      vertex 8.02 35.5944 2
      vertex 8.02 35.5944 16.1699
    endloop
  endfacet
  facet normal 0 1 0
    outer loop
      vertex 10.6 35.5944 3.4
      vertex 8.02 35.5944 2
      vertex 9.21436 35.5944 4.2
    endloop
  endfacet
  facet normal 0 1 0
    outer loop
      vertex 8.02 35.5944 2
      vertex 10.6 35.5944 3.4
      vertex 13.6 35.5944 2
    endloop
  endfacet
  facet normal -0.5 0 -0.866026
    outer loop
      vertex 10.6 30.1944 32.6
      vertex 11.9856 35.5944 31.8
      vertex 11.9856 30.1944 31.8
    endloop
  endfacet
  facet normal -0.5 0 -0.866026
    outer loop
      vertex 11.9856 35.5944 31.8
      vertex 10.6 30.1944 32.6
      vertex 10.6 35.5944 32.6
    endloop
  endfacet
  facet normal -0.5 0 0.866025
    outer loop
      vertex 10.6 35.5944 29.4
      vertex 11.9856 30.1944 30.2
      vertex 11.9856 35.5944 30.2
    endloop
  endfacet
  facet normal -0.5 0 0.866025
    outer loop
      vertex 11.9856 30.1944 30.2
      vertex 10.6 35.5944 29.4
      vertex 10.6 30.1944 29.4
    endloop
  endfacet
  facet normal -1 0 0
    outer loop
      vertex 11.9856 30.1944 30.2
      vertex 11.9856 35.5944 31.8
      vertex 11.9856 35.5944 30.2
    endloop
  endfacet
  facet normal -1 -0 0
    outer loop
      vertex 11.9856 35.5944 31.8
      vertex 11.9856 30.1944 30.2
      vertex 11.9856 30.1944 31.8
    endloop
  endfacet
  facet normal 1 -0 0
    outer loop
      vertex 9.21436 30.1944 31.8
      vertex 9.21436 35.5944 30.2
      vertex 9.21436 35.5944 31.8
    endloop
  endfacet
  facet normal 1 0 0
    outer loop
      vertex 9.21436 35.5944 30.2
      vertex 9.21436 30.1944 31.8
      vertex 9.21436 30.1944 30.2
    endloop
  endfacet
  facet normal 0.500001 0 0.866025
    outer loop
      vertex 9.21436 35.5944 30.2
      vertex 10.6 30.1944 29.4
      vertex 10.6 35.5944 29.4
    endloop
  endfacet
  facet normal 0.500001 0 0.866025
    outer loop
      vertex 10.6 30.1944 29.4
      vertex 9.21436 35.5944 30.2
      vertex 9.21436 30.1944 30.2
    endloop
  endfacet
  facet normal 0.5 0 -0.866026
    outer loop
      vertex 9.21436 30.1944 31.8
      vertex 10.6 35.5944 32.6
      vertex 10.6 30.1944 32.6
    endloop
  endfacet
  facet normal 0.5 0 -0.866026
    outer loop
      vertex 10.6 35.5944 32.6
      vertex 9.21436 30.1944 31.8
      vertex 9.21436 35.5944 31.8
    endloop
  endfacet
  facet normal -0.5 0 -0.866026
    outer loop
      vertex -2.4 30.1944 32.6
      vertex -1.01436 35.5944 31.8
      vertex -1.01436 30.1944 31.8
    endloop
  endfacet
  facet normal -0.5 0 -0.866026
    outer loop
      vertex -1.01436 35.5944 31.8
      vertex -2.4 30.1944 32.6
      vertex -2.4 35.5944 32.6
    endloop
  endfacet
  facet normal -0.5 0 0.866026
    outer loop
      vertex -2.4 35.5944 29.4
      vertex -1.01436 30.1944 30.2
      vertex -1.01436 35.5944 30.2
    endloop
  endfacet
  facet normal -0.5 0 0.866026
    outer loop
      vertex -1.01436 30.1944 30.2
      vertex -2.4 35.5944 29.4
      vertex -2.4 30.1944 29.4
    endloop
  endfacet
  facet normal -1 0 0
    outer loop
      vertex -1.01436 30.1944 30.2
      vertex -1.01436 35.5944 31.8
      vertex -1.01436 35.5944 30.2
    endloop
  endfacet
  facet normal -1 -0 0
    outer loop
      vertex -1.01436 35.5944 31.8
      vertex -1.01436 30.1944 30.2
      vertex -1.01436 30.1944 31.8
    endloop
  endfacet
  facet normal 0.5 0 -0.866026
    outer loop
      vertex -3.78564 30.1944 31.8
      vertex -2.4 35.5944 32.6
      vertex -2.4 30.1944 32.6
    endloop
  endfacet
  facet normal 0.5 0 -0.866026
    outer loop
      vertex -2.4 35.5944 32.6
      vertex -3.78564 30.1944 31.8
      vertex -3.78564 35.5944 31.8
    endloop
  endfacet
  facet normal 1 -0 0
    outer loop
      vertex -3.78564 30.1944 31.8
      vertex -3.78564 35.5944 30.2
      vertex -3.78564 35.5944 31.8
    endloop
  endfacet
  facet normal 1 0 0
    outer loop
      vertex -3.78564 35.5944 30.2
      vertex -3.78564 30.1944 31.8
      vertex -3.78564 30.1944 30.2
    endloop
  endfacet
  facet normal 0.5 0 0.866026
    outer loop
      vertex -3.78564 35.5944 30.2
      vertex -2.4 30.1944 29.4
      vertex -2.4 35.5944 29.4
    endloop
  endfacet
  facet normal 0.5 0 0.866026
    outer loop
      vertex -2.4 30.1944 29.4
      vertex -3.78564 35.5944 30.2
      vertex -3.78564 30.1944 30.2
    endloop
  endfacet
  facet normal -1 0 0
    outer loop
      vertex -2.05833 -3.7 14.7857
      vertex -2.05833 -1.90735e-07 16.7143
      vertex -2.05833 -1.90735e-07 14.7857
    endloop
  endfacet
  facet normal -1 -0 0
    outer loop
      vertex -2.05833 -1.90735e-07 16.7143
      vertex -2.05833 -3.7 14.7857
      vertex -2.05833 -3.7 16.7143
    endloop
  endfacet
  facet normal -0.748511 0 -0.663123
    outer loop
      vertex -3.41613 -3.7 20.2945
      vertex -4.69502 -1.90735e-07 21.7381
      vertex -3.41613 -1.90735e-07 20.2945
    endloop
  endfacet
  facet normal -0.748511 -0 -0.663123
    outer loop
      vertex -4.69502 -1.90735e-07 21.7381
      vertex -3.41613 -3.7 20.2945
      vertex -4.69502 -3.7 21.7381
    endloop
  endfacet
  facet normal -0.748511 0 0.663123
    outer loop
      vertex -4.69502 -3.7 9.76191
      vertex -3.41613 -1.90735e-07 11.2055
      vertex -4.69502 -1.90735e-07 9.76191
    endloop
  endfacet
  facet normal -0.748511 0 0.663123
    outer loop
      vertex -3.41613 -1.90735e-07 11.2055
      vertex -4.69502 -3.7 9.76191
      vertex -3.41613 -3.7 11.2055
    endloop
  endfacet
  facet normal 0 -1 0
    outer loop
      vertex -5.4 -1.90735e-07 22.2247
      vertex -3.41613 -1.90735e-07 20.2945
      vertex -4.69502 -1.90735e-07 21.7381
    endloop
  endfacet
  facet normal 0 -1 0
    outer loop
      vertex -5.4 -1.90735e-07 22.2247
      vertex -2.51987 -1.90735e-07 18.5868
      vertex -3.41613 -1.90735e-07 20.2945
    endloop
  endfacet
  facet normal 0 -1 0
    outer loop
      vertex -5.4 -1.90735e-07 22.2247
      vertex -2.05833 -1.90735e-07 16.7143
      vertex -2.51987 -1.90735e-07 18.5868
    endloop
  endfacet
  facet normal 0 -1 0
    outer loop
      vertex -5.4 -1.90735e-07 22.2247
      vertex -2.05833 -1.90735e-07 14.7857
      vertex -2.05833 -1.90735e-07 16.7143
    endloop
  endfacet
  facet normal 0 -1 0
    outer loop
      vertex -5.4 -1.90735e-07 22.2247
      vertex -2.51987 -1.90735e-07 12.9132
      vertex -2.05833 -1.90735e-07 14.7857
    endloop
  endfacet
  facet normal 0 -1 0
    outer loop
      vertex -5.4 -1.90735e-07 9.2753
      vertex -2.51987 -1.90735e-07 12.9132
      vertex -5.4 -1.90735e-07 22.2247
    endloop
  endfacet
  facet normal 0 -1 0
    outer loop
      vertex -2.51987 -1.90735e-07 12.9132
      vertex -5.4 -1.90735e-07 9.2753
      vertex -3.41613 -1.90735e-07 11.2055
    endloop
  endfacet
  facet normal 0 -1 0
    outer loop
      vertex -3.41613 -1.90735e-07 11.2055
      vertex -5.4 -1.90735e-07 9.2753
      vertex -4.69502 -1.90735e-07 9.76191
    endloop
  endfacet
  facet normal -0.885456 0 0.464723
    outer loop
      vertex -3.41613 -3.7 11.2055
      vertex -2.51987 -1.90735e-07 12.9132
      vertex -3.41613 -1.90735e-07 11.2055
    endloop
  endfacet
  facet normal -0.885456 0 0.464723
    outer loop
      vertex -2.51987 -1.90735e-07 12.9132
      vertex -3.41613 -3.7 11.2055
      vertex -2.51987 -3.7 12.9132
    endloop
  endfacet
  facet normal 0 1 0
    outer loop
      vertex -5.4 -3.7 19.4912
      vertex -4.69502 -3.7 21.7381
      vertex -3.41613 -3.7 20.2945
    endloop
  endfacet
  facet normal 0 1 0
    outer loop
      vertex -4.69502 -3.7 21.7381
      vertex -5.4 -3.7 19.4912
      vertex -5.4 -3.7 22.2247
    endloop
  endfacet
  facet normal 0 1 0
    outer loop
      vertex -3.41613 -3.7 20.2945
      vertex -4.977 -3.7 19.0317
      vertex -5.4 -3.7 19.4912
    endloop
  endfacet
  facet normal 0 1 0
    outer loop
      vertex -2.51987 -3.7 18.5868
      vertex -4.977 -3.7 19.0317
      vertex -3.41613 -3.7 20.2945
    endloop
  endfacet
  facet normal 0 1 0
    outer loop
      vertex -2.51987 -3.7 18.5868
      vertex -4.1836 -3.7 17.2229
      vertex -4.977 -3.7 19.0317
    endloop
  endfacet
  facet normal 0 1 0
    outer loop
      vertex -2.05833 -3.7 16.7143
      vertex -4.1836 -3.7 17.2229
      vertex -2.51987 -3.7 18.5868
    endloop
  endfacet
  facet normal 0 1 0
    outer loop
      vertex -2.05833 -3.7 16.7143
      vertex -4.02049 -3.7 15.2545
      vertex -4.1836 -3.7 17.2229
    endloop
  endfacet
  facet normal 0 1 -0
    outer loop
      vertex -2.05833 -3.7 14.7857
      vertex -4.02049 -3.7 15.2545
      vertex -2.05833 -3.7 16.7143
    endloop
  endfacet
  facet normal 0 1 -0
    outer loop
      vertex -2.51987 -3.7 12.9132
      vertex -4.02049 -3.7 15.2545
      vertex -2.05833 -3.7 14.7857
    endloop
  endfacet
  facet normal 0 1 0
    outer loop
      vertex -4.02049 -3.7 15.2545
      vertex -2.51987 -3.7 12.9132
      vertex -4.50536 -3.7 13.3398
    endloop
  endfacet
  facet normal 0 1 -0
    outer loop
      vertex -3.41613 -3.7 11.2055
      vertex -4.50536 -3.7 13.3398
      vertex -2.51987 -3.7 12.9132
    endloop
  endfacet
  facet normal 0 1 0
    outer loop
      vertex -4.50536 -3.7 13.3398
      vertex -3.41613 -3.7 11.2055
      vertex -5.4 -3.7 11.9705
    endloop
  endfacet
  facet normal 0 1 -0
    outer loop
      vertex -4.69502 -3.7 9.76191
      vertex -5.4 -3.7 11.9705
      vertex -3.41613 -3.7 11.2055
    endloop
  endfacet
  facet normal 0 1 0
    outer loop
      vertex -5.4 -3.7 11.9705
      vertex -4.69502 -3.7 9.76191
      vertex -5.4 -3.7 9.2753
    endloop
  endfacet
  facet normal -0.568066 0 -0.822983
    outer loop
      vertex -5.4 -3.7 22.2247
      vertex -4.69502 -1.90735e-07 21.7381
      vertex -4.69502 -3.7 21.7381
    endloop
  endfacet
  facet normal -0.568066 0 -0.822983
    outer loop
      vertex -4.69502 -1.90735e-07 21.7381
      vertex -5.4 -3.7 22.2247
      vertex -5.4 -1.90735e-07 22.2247
    endloop
  endfacet
  facet normal -0.970942 0 -0.239316
    outer loop
      vertex -2.05833 -3.7 16.7143
      vertex -2.51987 -1.90735e-07 18.5868
      vertex -2.05833 -1.90735e-07 16.7143
    endloop
  endfacet
  facet normal -0.970942 -0 -0.239316
    outer loop
      vertex -2.51987 -1.90735e-07 18.5868
      vertex -2.05833 -3.7 16.7143
      vertex -2.51987 -3.7 18.5868
    endloop
  endfacet
  facet normal -0.885456 0 -0.464723
    outer loop
      vertex -2.51987 -3.7 18.5868
      vertex -3.41613 -1.90735e-07 20.2945
      vertex -2.51987 -1.90735e-07 18.5868
    endloop
  endfacet
  facet normal -0.885456 -0 -0.464723
    outer loop
      vertex -3.41613 -1.90735e-07 20.2945
      vertex -2.51987 -3.7 18.5868
      vertex -3.41613 -3.7 20.2945
    endloop
  endfacet
  facet normal -0.568065 0 0.822984
    outer loop
      vertex -5.4 -1.90735e-07 9.2753
      vertex -4.69502 -3.7 9.76191
      vertex -4.69502 -1.90735e-07 9.76191
    endloop
  endfacet
  facet normal -0.568065 0 0.822984
    outer loop
      vertex -4.69502 -3.7 9.76191
      vertex -5.4 -1.90735e-07 9.2753
      vertex -5.4 -3.7 9.2753
    endloop
  endfacet
  facet normal -0.970942 0 0.239316
    outer loop
      vertex -2.51987 -3.7 12.9132
      vertex -2.05833 -1.90735e-07 14.7857
      vertex -2.51987 -1.90735e-07 12.9132
    endloop
  endfacet
  facet normal -0.970942 0 0.239316
    outer loop
      vertex -2.05833 -1.90735e-07 14.7857
      vertex -2.51987 -3.7 12.9132
      vertex -2.05833 -3.7 14.7857
    endloop
  endfacet
  facet normal -0.996585 0 -0.0825792
    outer loop
      vertex -4.02049 -9.7 15.2545
      vertex -4.1836 -3.7 17.2229
      vertex -4.02049 -3.7 15.2545
    endloop
  endfacet
  facet normal -0.996585 -0 -0.0825792
    outer loop
      vertex -4.1836 -3.7 17.2229
      vertex -4.02049 -9.7 15.2545
      vertex -4.1836 -9.7 17.2229
    endloop
  endfacet
  facet normal -0.735724 0 -0.677281
    outer loop
      vertex -4.977 -9.7 19.0317
      vertex -5.4 -3.7 19.4912
      vertex -4.977 -3.7 19.0317
    endloop
  endfacet
  facet normal -0.735724 -0 -0.677281
    outer loop
      vertex -5.4 -3.7 19.4912
      vertex -4.977 -9.7 19.0317
      vertex -5.4 -9.7 19.4912
    endloop
  endfacet
  facet normal -0.915773 0 -0.401695
    outer loop
      vertex -4.1836 -9.7 17.2229
      vertex -4.977 -3.7 19.0317
      vertex -4.1836 -3.7 17.2229
    endloop
  endfacet
  facet normal -0.915773 -0 -0.401695
    outer loop
      vertex -4.977 -3.7 19.0317
      vertex -4.1836 -9.7 17.2229
      vertex -4.977 -9.7 19.0317
    endloop
  endfacet
  facet normal -0.9694 0 0.245486
    outer loop
      vertex -4.50536 -9.7 13.3398
      vertex -4.02049 -3.7 15.2545
      vertex -4.50536 -3.7 13.3398
    endloop
  endfacet
  facet normal -0.9694 0 0.245486
    outer loop
      vertex -4.02049 -3.7 15.2545
      vertex -4.50536 -9.7 13.3398
      vertex -4.02049 -9.7 15.2545
    endloop
  endfacet
  facet normal -0.837166 0 0.546948
    outer loop
      vertex -5.4 -9.7 11.9705
      vertex -4.50536 -3.7 13.3398
      vertex -5.4 -3.7 11.9705
    endloop
  endfacet
  facet normal -0.837166 0 0.546948
    outer loop
      vertex -4.50536 -3.7 13.3398
      vertex -5.4 -9.7 11.9705
      vertex -4.50536 -9.7 13.3398
    endloop
  endfacet
  facet normal -0.568066 0 -0.822983
    outer loop
      vertex -5.4 -12.7 22.2247
      vertex -4.69502 -9.7 21.7381
      vertex -4.69502 -12.7 21.7381
    endloop
  endfacet
  facet normal -0.568066 0 -0.822983
    outer loop
      vertex -4.69502 -9.7 21.7381
      vertex -5.4 -12.7 22.2247
      vertex -5.4 -9.7 22.2247
    endloop
  endfacet
  facet normal -1 0 0
    outer loop
      vertex -2.05833 -12.7 14.7857
      vertex -2.05833 -9.7 16.7143
      vertex -2.05833 -9.7 14.7857
    endloop
  endfacet
  facet normal -1 -0 0
    outer loop
      vertex -2.05833 -9.7 16.7143
      vertex -2.05833 -12.7 14.7857
      vertex -2.05833 -12.7 16.7143
    endloop
  endfacet
  facet normal -0.748511 0 -0.663123
    outer loop
      vertex -3.41613 -12.7 20.2945
      vertex -4.69502 -9.7 21.7381
      vertex -3.41613 -9.7 20.2945
    endloop
  endfacet
  facet normal -0.748511 -0 -0.663123
    outer loop
      vertex -4.69502 -9.7 21.7381
      vertex -3.41613 -12.7 20.2945
      vertex -4.69502 -12.7 21.7381
    endloop
  endfacet
  facet normal -0.970942 0 -0.239316
    outer loop
      vertex -2.05833 -12.7 16.7143
      vertex -2.51987 -9.7 18.5868
      vertex -2.05833 -9.7 16.7143
    endloop
  endfacet
  facet normal -0.970942 -0 -0.239316
    outer loop
      vertex -2.51987 -9.7 18.5868
      vertex -2.05833 -12.7 16.7143
      vertex -2.51987 -12.7 18.5868
    endloop
  endfacet
  facet normal -0.885456 0 0.464723
    outer loop
      vertex -3.41613 -12.7 11.2055
      vertex -2.51987 -9.7 12.9132
      vertex -3.41613 -9.7 11.2055
    endloop
  endfacet
  facet normal -0.885456 0 0.464723
    outer loop
      vertex -2.51987 -9.7 12.9132
      vertex -3.41613 -12.7 11.2055
      vertex -2.51987 -12.7 12.9132
    endloop
  endfacet
  facet normal -0.748511 0 0.663123
    outer loop
      vertex -4.69502 -12.7 9.76191
      vertex -3.41613 -9.7 11.2055
      vertex -4.69502 -9.7 9.76191
    endloop
  endfacet
  facet normal -0.748511 0 0.663123
    outer loop
      vertex -3.41613 -9.7 11.2055
      vertex -4.69502 -12.7 9.76191
      vertex -3.41613 -12.7 11.2055
    endloop
  endfacet
  facet normal -0.885456 0 -0.464723
    outer loop
      vertex -2.51987 -12.7 18.5868
      vertex -3.41613 -9.7 20.2945
      vertex -2.51987 -9.7 18.5868
    endloop
  endfacet
  facet normal -0.885456 -0 -0.464723
    outer loop
      vertex -3.41613 -9.7 20.2945
      vertex -2.51987 -12.7 18.5868
      vertex -3.41613 -12.7 20.2945
    endloop
  endfacet
  facet normal 0 -1 0
    outer loop
      vertex -5.4 -9.7 19.4912
      vertex -4.69502 -9.7 21.7381
      vertex -5.4 -9.7 22.2247
    endloop
  endfacet
  facet normal 0 -1 -0
    outer loop
      vertex -4.69502 -9.7 21.7381
      vertex -5.4 -9.7 19.4912
      vertex -3.41613 -9.7 20.2945
    endloop
  endfacet
  facet normal 0 -1 0
    outer loop
      vertex -4.977 -9.7 19.0317
      vertex -3.41613 -9.7 20.2945
      vertex -5.4 -9.7 19.4912
    endloop
  endfacet
  facet normal 0 -1 0
    outer loop
      vertex -4.977 -9.7 19.0317
      vertex -2.51987 -9.7 18.5868
      vertex -3.41613 -9.7 20.2945
    endloop
  endfacet
  facet normal 0 -1 0
    outer loop
      vertex -4.1836 -9.7 17.2229
      vertex -2.51987 -9.7 18.5868
      vertex -4.977 -9.7 19.0317
    endloop
  endfacet
  facet normal 0 -1 0
    outer loop
      vertex -4.1836 -9.7 17.2229
      vertex -2.05833 -9.7 16.7143
      vertex -2.51987 -9.7 18.5868
    endloop
  endfacet
  facet normal 0 -1 0
    outer loop
      vertex -4.02049 -9.7 15.2545
      vertex -2.05833 -9.7 16.7143
      vertex -4.1836 -9.7 17.2229
    endloop
  endfacet
  facet normal 0 -1 0
    outer loop
      vertex -4.02049 -9.7 15.2545
      vertex -2.05833 -9.7 14.7857
      vertex -2.05833 -9.7 16.7143
    endloop
  endfacet
  facet normal 0 -1 0
    outer loop
      vertex -2.51987 -9.7 12.9132
      vertex -4.02049 -9.7 15.2545
      vertex -4.50536 -9.7 13.3398
    endloop
  endfacet
  facet normal 0 -1 0
    outer loop
      vertex -4.02049 -9.7 15.2545
      vertex -2.51987 -9.7 12.9132
      vertex -2.05833 -9.7 14.7857
    endloop
  endfacet
  facet normal 0 -1 0
    outer loop
      vertex -3.41613 -9.7 11.2055
      vertex -4.50536 -9.7 13.3398
      vertex -5.4 -9.7 11.9705
    endloop
  endfacet
  facet normal 0 -1 0
    outer loop
      vertex -4.50536 -9.7 13.3398
      vertex -3.41613 -9.7 11.2055
      vertex -2.51987 -9.7 12.9132
    endloop
  endfacet
  facet normal 0 -1 0
    outer loop
      vertex -5.4 -9.7 11.9705
      vertex -4.69502 -9.7 9.76191
      vertex -3.41613 -9.7 11.2055
    endloop
  endfacet
  facet normal -0 -1 0
    outer loop
      vertex -4.69502 -9.7 9.76191
      vertex -5.4 -9.7 11.9705
      vertex -5.4 -9.7 9.2753
    endloop
  endfacet
  facet normal -0.568065 0 0.822984
    outer loop
      vertex -5.4 -9.7 9.2753
      vertex -4.69502 -12.7 9.76191
      vertex -4.69502 -9.7 9.76191
    endloop
  endfacet
  facet normal -0.568065 0 0.822984
    outer loop
      vertex -4.69502 -12.7 9.76191
      vertex -5.4 -9.7 9.2753
      vertex -5.4 -12.7 9.2753
    endloop
  endfacet
  facet normal -0.970942 0 0.239316
    outer loop
      vertex -2.51987 -12.7 12.9132
      vertex -2.05833 -9.7 14.7857
      vertex -2.51987 -9.7 12.9132
    endloop
  endfacet
  facet normal -0.970942 0 0.239316
    outer loop
      vertex -2.05833 -9.7 14.7857
      vertex -2.51987 -12.7 12.9132
      vertex -2.05833 -12.7 14.7857
    endloop
  endfacet
  facet normal 0 1 0
    outer loop
      vertex -3.41613 -12.7 20.2945
      vertex -5.4 -12.7 22.2247
      vertex -4.69502 -12.7 21.7381
    endloop
  endfacet
  facet normal 0 1 0
    outer loop
      vertex -2.51987 -12.7 18.5868
      vertex -5.4 -12.7 22.2247
      vertex -3.41613 -12.7 20.2945
    endloop
  endfacet
  facet normal 0 1 0
    outer loop
      vertex -2.05833 -12.7 16.7143
      vertex -5.4 -12.7 22.2247
      vertex -2.51987 -12.7 18.5868
    endloop
  endfacet
  facet normal 0 1 -0
    outer loop
      vertex -2.05833 -12.7 14.7857
      vertex -5.4 -12.7 22.2247
      vertex -2.05833 -12.7 16.7143
    endloop
  endfacet
  facet normal 0 1 -0
    outer loop
      vertex -2.51987 -12.7 12.9132
      vertex -5.4 -12.7 22.2247
      vertex -2.05833 -12.7 14.7857
    endloop
  endfacet
  facet normal 0 1 0
    outer loop
      vertex -5.4 -12.7 9.2753
      vertex -2.51987 -12.7 12.9132
      vertex -3.41613 -12.7 11.2055
    endloop
  endfacet
  facet normal 0 1 0
    outer loop
      vertex -5.4 -12.7 9.2753
      vertex -3.41613 -12.7 11.2055
      vertex -4.69502 -12.7 9.76191
    endloop
  endfacet
  facet normal 0 1 0
    outer loop
      vertex -2.51987 -12.7 12.9132
      vertex -5.4 -12.7 9.2753
      vertex -5.4 -12.7 22.2247
    endloop
  endfacet
  facet normal -0.568066 0 -0.822983
    outer loop
      vertex -5.4 -15 22.2247
      vertex -4.69502 -14.2 21.7381
      vertex -4.69502 -15 21.7381
    endloop
  endfacet
  facet normal -0.568066 0 -0.822983
    outer loop
      vertex -4.69502 -14.2 21.7381
      vertex -5.4 -15 22.2247
      vertex -5.4 -14.2 22.2247
    endloop
  endfacet
  facet normal -1 0 0
    outer loop
      vertex -2.05833 -15 14.7857
      vertex -2.05833 -14.2 16.7143
      vertex -2.05833 -14.2 14.7857
    endloop
  endfacet
  facet normal -1 -0 0
    outer loop
      vertex -2.05833 -14.2 16.7143
      vertex -2.05833 -15 14.7857
      vertex -2.05833 -15 16.7143
    endloop
  endfacet
  facet normal -0.748511 0 -0.663123
    outer loop
      vertex -3.41613 -15 20.2945
      vertex -4.69502 -14.2 21.7381
      vertex -3.41613 -14.2 20.2945
    endloop
  endfacet
  facet normal -0.748511 -0 -0.663123
    outer loop
      vertex -4.69502 -14.2 21.7381
      vertex -3.41613 -15 20.2945
      vertex -4.69502 -15 21.7381
    endloop
  endfacet
  facet normal -0.970942 0 -0.239316
    outer loop
      vertex -2.05833 -15 16.7143
      vertex -2.51987 -14.2 18.5868
      vertex -2.05833 -14.2 16.7143
    endloop
  endfacet
  facet normal -0.970942 -0 -0.239316
    outer loop
      vertex -2.51987 -14.2 18.5868
      vertex -2.05833 -15 16.7143
      vertex -2.51987 -15 18.5868
    endloop
  endfacet
  facet normal -0.885456 0 0.464723
    outer loop
      vertex -3.41613 -15 11.2055
      vertex -2.51987 -14.2 12.9132
      vertex -3.41613 -14.2 11.2055
    endloop
  endfacet
  facet normal -0.885456 0 0.464723
    outer loop
      vertex -2.51987 -14.2 12.9132
      vertex -3.41613 -15 11.2055
      vertex -2.51987 -15 12.9132
    endloop
  endfacet
  facet normal -0.748511 0 0.663123
    outer loop
      vertex -4.69502 -15 9.76191
      vertex -3.41613 -14.2 11.2055
      vertex -4.69502 -14.2 9.76191
    endloop
  endfacet
  facet normal -0.748511 0 0.663123
    outer loop
      vertex -3.41613 -14.2 11.2055
      vertex -4.69502 -15 9.76191
      vertex -3.41613 -15 11.2055
    endloop
  endfacet
  facet normal -0.885456 0 -0.464723
    outer loop
      vertex -2.51987 -15 18.5868
      vertex -3.41613 -14.2 20.2945
      vertex -2.51987 -14.2 18.5868
    endloop
  endfacet
  facet normal -0.885456 -0 -0.464723
    outer loop
      vertex -3.41613 -14.2 20.2945
      vertex -2.51987 -15 18.5868
      vertex -3.41613 -15 20.2945
    endloop
  endfacet
  facet normal 0 -1 0
    outer loop
      vertex -5.4 -14.2 22.2247
      vertex -3.41613 -14.2 20.2945
      vertex -4.69502 -14.2 21.7381
    endloop
  endfacet
  facet normal 0 -1 0
    outer loop
      vertex -5.4 -14.2 22.2247
      vertex -2.51987 -14.2 18.5868
      vertex -3.41613 -14.2 20.2945
    endloop
  endfacet
  facet normal 0 -1 0
    outer loop
      vertex -5.4 -14.2 22.2247
      vertex -2.05833 -14.2 16.7143
      vertex -2.51987 -14.2 18.5868
    endloop
  endfacet
  facet normal 0 -1 0
    outer loop
      vertex -5.4 -14.2 22.2247
      vertex -2.05833 -14.2 14.7857
      vertex -2.05833 -14.2 16.7143
    endloop
  endfacet
  facet normal 0 -1 0
    outer loop
      vertex -5.4 -14.2 22.2247
      vertex -2.51987 -14.2 12.9132
      vertex -2.05833 -14.2 14.7857
    endloop
  endfacet
  facet normal 0 -1 0
    outer loop
      vertex -5.4 -14.2 9.2753
      vertex -2.51987 -14.2 12.9132
      vertex -5.4 -14.2 22.2247
    endloop
  endfacet
  facet normal 0 -1 0
    outer loop
      vertex -2.51987 -14.2 12.9132
      vertex -5.4 -14.2 9.2753
      vertex -3.41613 -14.2 11.2055
    endloop
  endfacet
  facet normal 0 -1 0
    outer loop
      vertex -3.41613 -14.2 11.2055
      vertex -5.4 -14.2 9.2753
      vertex -4.69502 -14.2 9.76191
    endloop
  endfacet
  facet normal -0.568065 0 0.822984
    outer loop
      vertex -5.4 -14.2 9.2753
      vertex -4.69502 -15 9.76191
      vertex -4.69502 -14.2 9.76191
    endloop
  endfacet
  facet normal -0.568065 0 0.822984
    outer loop
      vertex -4.69502 -15 9.76191
      vertex -5.4 -14.2 9.2753
      vertex -5.4 -15 9.2753
    endloop
  endfacet
  facet normal -0.970942 0 0.239316
    outer loop
      vertex -2.51987 -15 12.9132
      vertex -2.05833 -14.2 14.7857
      vertex -2.51987 -14.2 12.9132
    endloop
  endfacet
  facet normal -0.970942 0 0.239316
    outer loop
      vertex -2.05833 -14.2 14.7857
      vertex -2.51987 -15 12.9132
      vertex -2.05833 -15 14.7857
    endloop
  endfacet
  facet normal 0 -0.5 -0.866025
    outer loop
      vertex -5.4 -7 9.95
      vertex -3.15226e-15 -5.61436 9.15
      vertex -3.42787e-15 -7 9.95
    endloop
  endfacet
  facet normal -0 -0.5 -0.866025
    outer loop
      vertex -3.15226e-15 -5.61436 9.15
      vertex -5.4 -7 9.95
      vertex -5.4 -5.61436 9.15
    endloop
  endfacet
  facet normal 0 -1 0
    outer loop
      vertex -5.4 -5.61436 7.55
      vertex -3.15226e-15 -5.61436 9.15
      vertex -5.4 -5.61436 9.15
    endloop
  endfacet
  facet normal 0 -1 -0
    outer loop
      vertex -3.15226e-15 -5.61436 9.15
      vertex -5.4 -5.61436 7.55
      vertex -2.60104e-15 -5.61436 7.55
    endloop
  endfacet
  facet normal 0 1 0
    outer loop
      vertex -2.60104e-15 -8.38564 7.55
      vertex -5.4 -8.38564 9.15
      vertex -3.15226e-15 -8.38564 9.15
    endloop
  endfacet
  facet normal 0 1 0
    outer loop
      vertex -5.4 -8.38564 9.15
      vertex -2.60104e-15 -8.38564 7.55
      vertex -5.4 -8.38564 7.55
    endloop
  endfacet
  facet normal 0 -0.5 0.866026
    outer loop
      vertex -5.4 -5.61436 7.55
      vertex -2.32544e-15 -7 6.75
      vertex -2.60104e-15 -5.61436 7.55
    endloop
  endfacet
  facet normal 0 -0.5 0.866026
    outer loop
      vertex -2.32544e-15 -7 6.75
      vertex -5.4 -5.61436 7.55
      vertex -5.4 -7 6.75
    endloop
  endfacet
  facet normal -0 0.5 0.866026
    outer loop
      vertex -5.4 -7 6.75
      vertex -2.60104e-15 -8.38564 7.55
      vertex -2.32544e-15 -7 6.75
    endloop
  endfacet
  facet normal 0 0.5 0.866026
    outer loop
      vertex -2.60104e-15 -8.38564 7.55
      vertex -5.4 -7 6.75
      vertex -5.4 -8.38564 7.55
    endloop
  endfacet
  facet normal 0 0.5 -0.866025
    outer loop
      vertex -5.4 -8.38564 9.15
      vertex -3.42787e-15 -7 9.95
      vertex -3.15226e-15 -8.38564 9.15
    endloop
  endfacet
  facet normal 0 0.5 -0.866025
    outer loop
      vertex -3.42787e-15 -7 9.95
      vertex -5.4 -8.38564 9.15
      vertex -5.4 -7 9.95
    endloop
  endfacet
  facet normal 0 -0.5 -0.866025
    outer loop
      vertex -5.4 -7 24.75
      vertex -8.251e-15 -5.61436 23.95
      vertex -8.5266e-15 -7 24.75
    endloop
  endfacet
  facet normal -0 -0.5 -0.866025
    outer loop
      vertex -8.251e-15 -5.61436 23.95
      vertex -5.4 -7 24.75
      vertex -5.4 -5.61436 23.95
    endloop
  endfacet
  facet normal 0 -0.5 0.866026
    outer loop
      vertex -5.4 -5.61436 22.35
      vertex -7.42418e-15 -7 21.55
      vertex -7.69978e-15 -5.61436 22.35
    endloop
  endfacet
  facet normal 0 -0.5 0.866026
    outer loop
      vertex -7.42418e-15 -7 21.55
      vertex -5.4 -5.61436 22.35
      vertex -5.4 -7 21.55
    endloop
  endfacet
  facet normal 0 -1 0
    outer loop
      vertex -5.4 -5.61436 22.35
      vertex -8.251e-15 -5.61436 23.95
      vertex -5.4 -5.61436 23.95
    endloop
  endfacet
  facet normal 0 -1 -0
    outer loop
      vertex -8.251e-15 -5.61436 23.95
      vertex -5.4 -5.61436 22.35
      vertex -7.69978e-15 -5.61436 22.35
    endloop
  endfacet
  facet normal 0 0.500001 -0.866025
    outer loop
      vertex -5.4 -8.38564 23.95
      vertex -8.5266e-15 -7 24.75
      vertex -8.251e-15 -8.38564 23.95
    endloop
  endfacet
  facet normal 0 0.500001 -0.866025
    outer loop
      vertex -8.5266e-15 -7 24.75
      vertex -5.4 -8.38564 23.95
      vertex -5.4 -7 24.75
    endloop
  endfacet
  facet normal 0 1 0
    outer loop
      vertex -7.69978e-15 -8.38564 22.35
      vertex -5.4 -8.38564 23.95
      vertex -8.251e-15 -8.38564 23.95
    endloop
  endfacet
  facet normal 0 1 0
    outer loop
      vertex -5.4 -8.38564 23.95
      vertex -7.69978e-15 -8.38564 22.35
      vertex -5.4 -8.38564 22.35
    endloop
  endfacet
  facet normal -0 0.5 0.866026
    outer loop
      vertex -5.4 -7 21.55
      vertex -7.69978e-15 -8.38564 22.35
      vertex -7.42418e-15 -7 21.55
    endloop
  endfacet
  facet normal 0 0.5 0.866026
    outer loop
      vertex -7.69978e-15 -8.38564 22.35
      vertex -5.4 -7 21.55
      vertex -5.4 -8.38564 22.35
    endloop
  endfacet
endsolid OpenSCAD_Model
